<?xml version="1.0" encoding="iso-8859-1"?>
<!-- Generator: Adobe Illustrator 30.0.0, SVG Export Plug-In . SVG Version: 9.03 Build 0)  -->
<svg version="1.1" id="Layer_1" xmlns="https://www.w3.org/2000/svg" xmlns:xlink="https://www.w3.org/1999/xlink" x="0px" y="0px"
	 viewBox="0 0 40 43" style="enable-background:new 0 0 40 43;" xml:space="preserve">
<path style="fill:#FE0096;" d="M21.545,6.082V3.09h4.893V0H13.561v3.09h4.893v2.992c-3.528,0.32-6.748,1.719-9.325,3.868l-1.21-1.21
	l1.283-1.283L7.018,5.274l-4.75,4.75l2.185,2.185l1.283-1.283l1.21,1.21c-2.459,2.948-3.942,6.738-3.942,10.869
	C3.003,32.376,10.627,40,20,40s16.996-7.624,16.996-16.996C36.995,14.154,30.194,6.866,21.545,6.082z M20,36.91
	c-7.668,0-13.906-6.238-13.906-13.906S12.332,9.098,20,9.098c3.278,0,6.293,1.143,8.673,3.048l-9.765,9.765l2.185,2.185l9.765-9.765
	c1.905,2.38,3.048,5.395,3.048,8.673C33.904,30.672,27.667,36.91,20,36.91z"/>
</svg>
